<svg width="32" height="32" viewBox="0 0 32 32" fill="none" xmlns="http://www.w3.org/2000/svg">
<path d="M16 0C24.8366 0 32 7.16344 32 16C32 24.8366 24.8366 32 16 32C7.16344 32 0 24.8366 0 16C0 7.16344 7.16344 0 16 0ZM16 2.39963C8.48872 2.39963 2.39963 8.48872 2.39963 16C2.39963 23.5113 8.48872 29.6004 16 29.6004C23.5113 29.6004 29.6004 23.5113 29.6004 16C29.6004 8.48872 23.5113 2.39963 16 2.39963ZM10.3397 20.4526C11.6981 22.1767 13.7634 23.2014 16 23.2014C18.2336 23.2014 20.2964 22.1795 21.655 20.4593C22.0657 19.9393 22.8202 19.8507 23.3402 20.2614C23.8602 20.6721 23.9489 21.4266 23.5381 21.9466C21.7292 24.237 18.9757 25.601 16 25.601C13.0202 25.601 10.2635 24.2333 8.45479 21.9377C8.0447 21.4172 8.13419 20.6628 8.65468 20.2527C9.17518 19.8426 9.92957 19.9321 10.3397 20.4526ZM11.2015 10.8018C12.3052 10.8018 13.2 11.6966 13.2 12.8004C13.2 13.9042 12.3052 14.7989 11.2015 14.7989C10.0977 14.7989 9.20291 13.9042 9.20291 12.8004C9.20291 11.6966 10.0977 10.8018 11.2015 10.8018ZM20.8 10.8018C21.9037 10.8018 22.7985 11.6966 22.7985 12.8004C22.7985 13.9042 21.9037 14.7989 20.8 14.7989C19.6962 14.7989 18.8014 13.9042 18.8014 12.8004C18.8014 11.6966 19.6962 10.8018 20.8 10.8018Z" fill="#8793FF"></path>
</svg>
