<svg width="16" height="16" viewBox="0 0 16 16" fill="none" xmlns="http://www.w3.org/2000/svg">
<path d="M1.99994 6.08533L7.4523 9.35729C7.58425 9.43646 7.74909 9.43646 7.88104 9.35729L11.8827 6.95652C12.0285 6.98505 12.1792 7 12.3333 7C12.6913 7 13.0304 6.91939 13.3336 6.77534L13.3333 10.9167C13.3333 11.6991 12.6991 12.3333 11.9167 12.3333H3.41667C2.63427 12.3333 1.99994 11.6991 1.99994 10.9167V6.08533ZM10.2246 3.66665C10.0806 3.96974 10 4.30879 10 4.66667C10 5.43703 10.3733 6.1202 10.9489 6.54512L7.66667 8.51409L2.02368 5.12812C2.16124 4.29892 2.88179 3.66665 3.75 3.66665H10.2246ZM12.3333 3C13.2538 3 14 3.74619 14 4.66667C14 5.58714 13.2538 6.33333 12.3333 6.33333C11.4129 6.33333 10.6667 5.58714 10.6667 4.66667C10.6667 3.74619 11.4129 3 12.3333 3Z" fill="#8793FF"></path>
</svg>
